<svg width="99" height="80" viewBox="0 0 99 80" fill="none" xmlns="http://www.w3.org/2000/svg">
<path opacity="0.1" d="M0 80V53.7037C0 43.5802 1.59476 34.1975 4.7843 25.5555C8.21918 16.9136 13.9849 8.39506 22.0814 0L36.4343 10.7407C31.0366 16.6667 27.111 22.2222 24.6575 27.4074C22.204 32.3457 20.732 37.2839 20.2413 42.2222H37.5383V80H0ZM61.0918 80V53.7037C61.0918 43.5802 62.6866 34.1975 65.8761 25.5555C69.311 16.9136 75.0767 8.39506 83.1732 0L97.5261 10.7407C92.1284 16.6667 88.2028 22.2222 85.7493 27.4074C83.2959 32.3457 81.8238 37.2839 81.3331 42.2222H98.6301V80H61.0918Z" fill="url(#paint0_linear_493_541)"/>
<defs>
<linearGradient id="paint0_linear_493_541" x1="-0.354785" y1="39.7122" x2="98.6301" y2="39.7122" gradientUnits="userSpaceOnUse">
<stop stop-color="#F37335"/>
<stop offset="1" stop-color="#FDC830"/>
</linearGradient>
</defs>
</svg>
