<svg width="99" height="80" viewBox="0 0 99 80" fill="none" xmlns="http://www.w3.org/2000/svg">
<path opacity="0.1" d="M98.6299 0L98.6299 26.2963C98.6299 36.4198 97.0351 45.8025 93.8456 54.4444C90.4107 63.0864 84.645 71.6049 76.5485 80L62.1956 69.2593C67.5933 63.3333 71.5189 57.7778 73.9724 52.5926C76.4258 47.6543 77.8979 42.7161 78.3886 37.7778L61.0916 37.7778L61.0916 -3.28171e-06L98.6299 0ZM37.5381 -5.34081e-06L37.5381 26.2963C37.5381 36.4198 35.9433 45.8025 32.7538 54.4444C29.3189 63.0864 23.5532 71.6049 15.4567 80L1.10381 69.2593C6.50148 63.3333 10.4271 57.7778 12.8805 52.5926C15.334 47.6543 16.8061 42.716 17.2968 37.7778L-0.000248079 37.7778L-0.000244776 -8.62252e-06L37.5381 -5.34081e-06Z" fill="url(#paint0_linear_493_540)"/>
<defs>
<linearGradient id="paint0_linear_493_540" x1="98.9847" y1="40.2878" x2="-0.000245671" y2="40.2878" gradientUnits="userSpaceOnUse">
<stop stop-color="#F37335"/>
<stop offset="1" stop-color="#FDC830"/>
</linearGradient>
</defs>
</svg>
